<!--?xml version="1.0" standalone="no"?-->
              <svg id="sw-js-blob-svg" viewBox="0 0 100 100" xmlns="http://www.w3.org/2000/svg" version="1.1">
                    <defs> 
                        <linearGradient id="sw-gradient" x1="0" x2="1" y1="1" y2="0">
                            <stop id="stop1" stop-color="rgba(255, 189.189, 133.259, 1)" offset="0%"></stop>
                            <stop id="stop2" stop-color="rgba(206.12, 147.921, 51.857, 1)" offset="100%"></stop>
                        </linearGradient>
                    </defs>
                <path fill="url(#sw-gradient)" d="M16.7,-21.6C20.3,-16.9,20.8,-10.4,19.4,-5.4C17.9,-0.4,14.4,3,12.5,8.2C10.7,13.4,10.4,20.5,7.2,23.2C4,25.8,-2,24,-10.9,23.5C-19.8,23.1,-31.5,24,-32.8,19.8C-34.1,15.7,-24.9,6.4,-18.8,1C-12.6,-4.4,-9.5,-5.9,-6.8,-10.7C-4.2,-15.5,-2.1,-23.5,2.2,-26.2C6.6,-28.8,13.2,-26.2,16.7,-21.6Z" width="100%" height="100%" transform="translate(50 50)" stroke-width="0" style="transition: all 0.3s ease 0s;" stroke="url(#sw-gradient)"></path>
              </svg>